<?xml version="1.0" encoding="utf-8"?>
<!-- Generator: Adobe Illustrator 23.0.2, SVG Export Plug-In . SVG Version: 6.00 Build 0)  -->
<svg version="1.1" id="Calque_1" xmlns="http://www.w3.org/2000/svg" xmlns:xlink="http://www.w3.org/1999/xlink" x="0px" y="0px"
	 viewBox="0 0 1080 1080" style="enable-background:new 0 0 1080 1080;" xml:space="preserve">
<style type="text/css">
	.st0{fill:#C7373C;}
	.st1{fill:#CDCDCD;}
</style>
<path class="st0" d="M698.85,329.97v334.44c0,27.62,4.64,46.58,13.83,57.03c9.34,10.4,30.84,15.53,64.78,15.53v57.8H423.6v-57.8
	h13.29c32.83,0,53.54-5.48,62.22-16.4c8.62-10.84,12.94-29.63,12.94-56.16v-162.6c0-26.9-4.39-45.75-13.26-56.45
	c-8.9-10.73-29.46-16.1-61.91-16.1H423.6v-57.87L698.85,329.97z"/>

<path class="st0" d="M482.09,146.33c0-27.75,10.51-51.81,31.66-71.95c21.12-20.14,46.5-30.27,76.05-30.27
	c29.87,0,55.28,9.96,75.99,29.99c20.77,19.91,31.13,43.96,31.13,72.23c0,28.22-10.51,52.34-31.48,72.31
	c-20.87,19.94-46.19,29.9-75.64,29.9c-30.78,0-56.35-10.24-76.97-30.7C492.39,197.25,482.09,173.4,482.09,146.33">
	<animate attributeName="opacity" values="1;0" keyTimes="0;1" dur="1s" begin="0.8333333333333334s" repeatCount="indefinite"></animate>
</path>

<path class="st1" d="M218.14,239.62c0-24.18,9.19-45.08,27.53-62.57c18.44-17.46,40.44-26.22,66.14-26.22
	c25.98,0,48.08,8.63,66.14,25.93c18.03,17.38,27.02,38.29,27.02,62.86c0,24.56-9.12,45.52-27.34,62.85
	c-18.25,17.36-40.16,26.06-65.82,26.06c-26.74,0-48.96-8.92-66.9-26.74C227.07,283.94,218.14,263.17,218.14,239.62">
	<animate attributeName="opacity" values="1;0" keyTimes="0;1" dur="1s" begin="0.75s" repeatCount="indefinite"></animate>
</path>

<path class="st1" d="M777.18,241.29c0-26.9,10.17-50.15,30.56-69.55c20.46-19.43,44.96-29.17,73.46-29.17
	c28.92,0,53.38,9.6,73.46,28.82c19.95,19.37,30.05,42.62,30.05,69.9c0,27.31-10.13,50.56-30.4,69.86
	c-20.2,19.29-44.61,28.95-73.12,28.95c-29.71,0-54.4-9.91-74.32-29.72C787.06,290.53,777.18,267.5,777.18,241.29">
	<animate attributeName="opacity" values="1;0" keyTimes="0;1" dur="1s" begin="0.6666666666666666s" repeatCount="indefinite"></animate>
</path>

<path class="st1" d="M244.6,448.08c0,42.18-36.15,76.29-80.79,76.29c-44.67,0-80.85-34.11-80.85-76.29
	c0-42.05,36.18-76.24,80.85-76.24C208.45,371.84,244.6,406.02,244.6,448.08">
	<animate attributeName="opacity" values="1;0" keyTimes="0;1" dur="1s" begin="0.5833333333333334s" repeatCount="indefinite"></animate>
</path>

<path class="st1" d="M224.74,670.47c0,35.75-30.72,64.72-68.54,64.72c-38.01,0-68.76-28.97-68.76-64.72
	c0-35.83,30.75-64.86,68.76-64.86C194.02,605.61,224.74,634.64,224.74,670.47">
	<animate attributeName="opacity" values="1;0" keyTimes="0;1" dur="1s" begin="0.5s" repeatCount="indefinite"></animate>
</path>

<path class="st1" d="M316.54,849.99c0,30.37-26.27,55.14-58.4,55.14c-32.26,0-58.37-24.77-58.37-55.14
	c0-30.5,26.11-55.07,58.37-55.07C290.28,794.92,316.54,819.5,316.54,849.99">
	<animate attributeName="opacity" values="1;0" keyTimes="0;1" dur="1s" begin="0.4166666666666667s" repeatCount="indefinite"></animate>
</path>

<path class="st1" d="M469.03,960.71c0,25.82-22.23,46.82-49.66,46.82c-27.37,0-49.6-20.99-49.6-46.82c0-25.9,22.23-46.88,49.6-46.88
	C446.8,913.83,469.03,934.81,469.03,960.71">
	<animate attributeName="opacity" values="1;0" keyTimes="0;1" dur="1s" begin="0.3333333333333333s" repeatCount="indefinite"></animate>
</path>

<path class="st1" d="M636.03,996.05c0,21.99-18.91,39.84-42.21,39.84c-23.2,0-42.11-17.85-42.11-39.84
	c0-21.99,18.91-39.84,42.11-39.84C617.12,956.21,636.03,974.06,636.03,996.05">
	<animate attributeName="opacity" values="1;0" keyTimes="0;1" dur="1s" begin="0.25s" repeatCount="indefinite"></animate>
</path>

<path class="st1" d="M791.13,968.82c0,18.74-16.1,33.89-35.96,33.89c-19.76,0-35.86-15.15-35.86-33.89
	c0-18.71,16.1-33.83,35.86-33.83C775.03,934.99,791.13,950.12,791.13,968.82">
	<animate attributeName="opacity" values="1;0" keyTimes="0;1" dur="1s" begin="0.16666666666666666s" repeatCount="indefinite"></animate>
</path>

<path class="st1" d="M909.83,902.94c0,15.94-13.64,28.78-30.46,28.78c-16.8,0-30.47-12.83-30.47-28.78
	c0-15.86,13.67-28.76,30.47-28.76C896.2,874.17,909.83,887.07,909.83,902.94">
	<animate attributeName="opacity" values="1;0" keyTimes="0;1" dur="1s" begin="0.08333333333333333s" repeatCount="indefinite"></animate>
</path>

<path class="st1" d="M995.04,813.78c0,13.51-11.52,24.45-25.82,24.45c-14.33,0-25.89-10.94-25.89-24.45
	c0-13.58,11.55-24.47,25.89-24.47C983.52,789.32,995.04,800.21,995.04,813.78">
	<animate attributeName="opacity" values="1;0" keyTimes="0;1" dur="1s" begin="0s" repeatCount="indefinite"></animate>
</path>
</svg>
